<svg width="40" height="40" viewBox="0 0 40 40" fill="none" xmlns="http://www.w3.org/2000/svg">
<path fill-rule="evenodd" clip-rule="evenodd" d="M20 40C31.0457 40 40 31.0457 40 20C40 8.9543 31.0457 0 20 0C8.9543 0 0 8.9543 0 20C0 31.0457 8.9543 40 20 40ZM17 13.75C17 12.0931 18.3431 10.75 20 10.75C21.6569 10.75 23 12.0931 23 13.75C23 15.4068 21.6569 16.75 20 16.75C18.3431 16.75 17 15.4068 17 13.75ZM20 6.74998C16.134 6.74998 13 9.88399 13 13.75C13 17.616 16.134 20.75 20 20.75C23.866 20.75 27 17.616 27 13.75C27 9.88399 23.866 6.74998 20 6.74998ZM15 21.75C13.1435 21.75 11.363 22.4875 10.0503 23.8002C8.7375 25.113 8 26.8935 8 28.75V31.25C8 32.3546 8.89543 33.25 10 33.25C11.1046 33.25 12 32.3546 12 31.25V28.75C12 27.9543 12.3161 27.1913 12.8787 26.6287C13.4413 26.0661 14.2044 25.75 15 25.75H25C25.7956 25.75 26.5587 26.0661 27.1213 26.6287C27.6839 27.1913 28 27.9543 28 28.75V31.25C28 32.3546 28.8954 33.25 30 33.25C31.1046 33.25 32 32.3546 32 31.25V28.75C32 26.8935 31.2625 25.113 29.9497 23.8002C28.637 22.4875 26.8565 21.75 25 21.75H15Z" fill="#D9D9D9"/>
</svg>
